<svg xmlns="http://www.w3.org/2000/svg" width="45.024" height="45.023" viewBox="0 0 45.024 45.023">
  <path id="f_star" d="M18.1,9.673C20.954,4.558,22.38,2,24.512,2s3.557,2.558,6.409,7.673L31.658,11a8.258,8.258,0,0,0,1.847,2.66A7.694,7.694,0,0,0,36.5,14.67l1.433.324c5.537,1.253,8.306,1.879,8.964,4s-1.229,4.325-5,8.739l-.977,1.142a8.287,8.287,0,0,0-1.85,2.658,8.649,8.649,0,0,0,0,3.286l.148,1.524c.571,5.89.856,8.834-.868,10.143s-4.317.115-9.5-2.271L27.5,43.594a7.68,7.68,0,0,0-2.991-1.018,7.68,7.68,0,0,0-2.991,1.018l-1.341.618C15,46.6,12.4,47.793,10.679,46.484S9.24,42.23,9.81,36.34l.148-1.524a8.642,8.642,0,0,0,0-3.286,8.284,8.284,0,0,0-1.85-2.658l-.977-1.142c-3.775-4.414-5.662-6.621-5-8.739s3.427-2.745,8.964-4l1.433-.324a7.7,7.7,0,0,0,2.992-1.014A8.26,8.26,0,0,0,17.365,11Z" transform="translate(-2 -2)" fill="#ffa300"/>
</svg>
