<svg xmlns="http://www.w3.org/2000/svg" width="32.619" height="71.506" viewBox="0 0 32.619 71.506">
  <g id="female" transform="translate(-139.219)">
    <path id="Path_49" data-name="Path 49" d="M214.319,13.533a6.766,6.766,0,1,0-6.767-6.764A6.767,6.767,0,0,0,214.319,13.533Z" transform="translate(-58.79 0)"/>
    <path id="Path_50" data-name="Path 50" d="M171.647,156.527l-7.012-16.486,2.333-11.769c.243-4.468-3.118-7.817-6.4-7.817H150.485c-3.277,0-6.638,3.35-6.4,7.817l2.334,11.769-7.013,16.486a2.4,2.4,0,0,0,2.2,3.332H149l1.912,12.977a2.3,2.3,0,0,0,2.3,2.3h4.616a2.3,2.3,0,0,0,2.3-2.3l1.912-12.977h7.391a2.4,2.4,0,0,0,2.2-3.332Z" transform="translate(0 -103.632)"/>
  </g>
</svg>
