<svg xmlns="http://www.w3.org/2000/svg" width="32.974" height="29.975" viewBox="0 0 32.974 29.975">
  <path id="img_5" d="M30.975,15.764V9.494a1.5,1.5,0,0,0-1.5-1.5H5.5a1.5,1.5,0,1,1,0-3h23.98a1.5,1.5,0,1,0,0-3H5.5A4.5,4.5,0,0,0,1,6.5V27.479a4.5,4.5,0,0,0,4.5,4.5h23.98a1.5,1.5,0,0,0,1.5-1.5V24.205a4.469,4.469,0,0,0,0-8.441Zm-3,13.213H5.5a1.5,1.5,0,0,1-1.5-1.5V10.717a4.445,4.445,0,0,0,1.5.276H27.977v4.5h-4.5a4.5,4.5,0,0,0,0,8.992h4.5Zm1.5-7.494H23.481a1.5,1.5,0,0,1,0-3h5.995a1.5,1.5,0,1,1,0,3Z" transform="translate(-1 -2)" fill="#ffa300"/>
</svg>
