<svg xmlns="http://www.w3.org/2000/svg" width="22.219" height="28.885" viewBox="0 0 22.219 28.885">
  <path id="img_2" d="M26.192,13.374H24.525V10.131a6.666,6.666,0,1,0-13.331-.09v3.333H9.527A2.786,2.786,0,0,0,6.75,16.151V29.482A2.786,2.786,0,0,0,9.527,32.26H26.192a2.786,2.786,0,0,0,2.777-2.777V16.151A2.786,2.786,0,0,0,26.192,13.374Zm-7.36,8.665v4.777a1,1,0,0,1-.923,1,.973.973,0,0,1-1.021-.972v-4.8a2.222,2.222,0,1,1,1.944,0Zm3.749-8.665H13.138V10.041a4.722,4.722,0,0,1,9.443,0Z" transform="translate(-6.75 -3.374)" fill="#ffa300"/>
</svg>
