<svg xmlns="http://www.w3.org/2000/svg" width="22.219" height="24.502" viewBox="0 0 22.219 24.502">
  <path id="img_1" d="M23.874,11.309a12.636,12.636,0,0,1-.407,2.741A7.931,7.931,0,0,1,22.4,16.456a5.623,5.623,0,0,1-1.807,1.71,5.1,5.1,0,0,1-2.638.651,3.824,3.824,0,0,1-1.908-.467,3.267,3.267,0,0,1-1.289-1.321A4.086,4.086,0,0,1,11.3,18.765a3.515,3.515,0,0,1-3.018-1.623,5.313,5.313,0,0,1-.75-1.88,8.109,8.109,0,0,1-.1-2.453,11.394,11.394,0,0,1,.747-3A8.165,8.165,0,0,1,9.564,7.5a5.842,5.842,0,0,1,1.9-1.467,5.3,5.3,0,0,1,2.309-.513,7.179,7.179,0,0,1,1.381.118,5.653,5.653,0,0,1,1.072.322,5.8,5.8,0,0,1,.888.469c.271.175.544.355.815.539l-.671,7.717a2.565,2.565,0,0,0,.02.9,1.264,1.264,0,0,0,.276.557A.992.992,0,0,0,18,16.44a1.66,1.66,0,0,0,1.571-.309,3.348,3.348,0,0,0,.842-1.072,6.9,6.9,0,0,0,.567-1.611,11.052,11.052,0,0,0,.248-2.006,12.818,12.818,0,0,0-.315-3.748,7.45,7.45,0,0,0-1.387-2.9,6.441,6.441,0,0,0-2.487-1.868,9.025,9.025,0,0,0-3.623-.663,8,8,0,0,0-3.583.781A8.221,8.221,0,0,0,7.11,5.209,10.39,10.39,0,0,0,5.327,8.465a14.676,14.676,0,0,0-.75,4.057,13.492,13.492,0,0,0,.383,4.14A7.477,7.477,0,0,0,6.473,19.63a6.313,6.313,0,0,0,2.563,1.782A9.831,9.831,0,0,0,12.573,22a12.114,12.114,0,0,0,2.321-.25c.383-.077.746-.168,1.092-.269a8.217,8.217,0,0,0,.94-.337l.485,2.183a5.388,5.388,0,0,1-1.052.521,10.125,10.125,0,0,1-1.243.36,12.131,12.131,0,0,1-2.6.291,13.618,13.618,0,0,1-4.734-.762,8.713,8.713,0,0,1-3.451-2.269,9.53,9.53,0,0,1-2.072-3.747,15.981,15.981,0,0,1-.579-5.2,15.862,15.862,0,0,1,1-4.991,12.353,12.353,0,0,1,2.4-3.966A10.926,10.926,0,0,1,8.734.949,11.452,11.452,0,0,1,13.471,0a11.956,11.956,0,0,1,4.59.822,8.928,8.928,0,0,1,3.313,2.312,9.488,9.488,0,0,1,1.966,3.572A13.658,13.658,0,0,1,23.874,11.309Zm-13.149,1.5a5.209,5.209,0,0,0,.269,2.583,1.385,1.385,0,0,0,1.332.873,1.471,1.471,0,0,0,.456-.084,1.627,1.627,0,0,0,.525-.315,2.8,2.8,0,0,0,.533-.643,4.935,4.935,0,0,0,.49-1.087l.524-6a3.128,3.128,0,0,0-.815-.107,2.816,2.816,0,0,0-1.355.311,2.683,2.683,0,0,0-.96.913,5.359,5.359,0,0,0-.637,1.5,12.729,12.729,0,0,0-.361,2.052Z" transform="translate(-1.67)" fill="#ffa300"/>
</svg>
