<svg xmlns="http://www.w3.org/2000/svg" width="18.968" height="22.761" viewBox="0 0 18.968 22.761">
  <path id="loc" d="M14.344,23.224c-.162.119-.313.227-.451.323-.147-.1-.31-.21-.487-.336a22.771,22.771,0,0,1-2.983-2.567C8.235,18.4,6.4,15.538,6.4,12.484a7.587,7.587,0,0,1,15.174,0c0,3.021-1.92,5.876-4.186,8.143A26.607,26.607,0,0,1,14.344,23.224Zm9.124-10.74c0,7.587-9.484,13.277-9.484,13.277-.474,0-9.484-5.69-9.484-13.277a9.484,9.484,0,0,1,18.968,0Zm-7.587,0a1.9,1.9,0,1,1-1.9-1.9A1.9,1.9,0,0,1,15.881,12.484Zm1.9,0A3.794,3.794,0,1,1,13.984,8.69,3.793,3.793,0,0,1,17.777,12.484Z" transform="translate(-4.5 -3)" fill="#ffa300" fill-rule="evenodd"/>
</svg>
