<svg xmlns="http://www.w3.org/2000/svg" width="28.61" height="34.332" viewBox="0 0 28.61 34.332">
  <path id="map" d="M19.348,33.505c-.244.179-.472.342-.68.488-.222-.147-.468-.317-.735-.508a34.347,34.347,0,0,1-4.5-3.873c-3.3-3.383-6.072-7.7-6.072-12.308a11.444,11.444,0,1,1,22.888,0c0,4.557-2.9,8.863-6.315,12.282A40.133,40.133,0,0,1,19.348,33.505Zm13.762-16.2c0,11.444-14.305,20.027-14.305,20.027C18.09,37.332,4.5,28.749,4.5,17.305a14.305,14.305,0,1,1,28.61,0Zm-11.444,0a2.861,2.861,0,1,1-2.861-2.861A2.861,2.861,0,0,1,21.666,17.305Zm2.861,0a5.722,5.722,0,1,1-5.722-5.722A5.722,5.722,0,0,1,24.527,17.305Z" transform="translate(-4.5 -3)" fill="#ffa300" fill-rule="evenodd"/>
</svg>
