<svg xmlns="http://www.w3.org/2000/svg" width="20.972" height="20.972" viewBox="0 0 20.972 20.972">
  <path id="select_1" d="M13.861,3.375A10.486,10.486,0,1,0,24.347,13.861,10.485,10.485,0,0,0,13.861,3.375Zm6.418,4.068A9,9,0,0,1,21.418,8.83a.185.185,0,0,1,.02.176l-.726,2.082a.2.2,0,0,1-.106.116l-2.9,1.321a.2.2,0,0,1-.212-.03l-2.853-2.4a.207.207,0,0,1-.071-.156V6.758a.2.2,0,0,1,.091-.166L16.6,5.276a.2.2,0,0,1,.176-.025A9.188,9.188,0,0,1,20.279,7.443Zm-3.726,15a.186.186,0,0,1-.131.121,9.062,9.062,0,0,1-2.561.363,9.219,9.219,0,0,1-2.561-.363.209.209,0,0,1-.131-.121l-.827-2.168a.212.212,0,0,1,.01-.166l1.124-2.133a.2.2,0,0,1,.176-.106h4.411a.2.2,0,0,1,.176.106l1.124,2.133a.212.212,0,0,1,.01.166Zm-3.4-15.679V9.949a.207.207,0,0,1-.071.156L10.226,12.5a.2.2,0,0,1-.212.03l-2.9-1.321a.2.2,0,0,1-.106-.116L6.284,9.016A.2.2,0,0,1,6.3,8.84a9.14,9.14,0,0,1,4.648-3.569.2.2,0,0,1,.176.025l1.936,1.316A.167.167,0,0,1,13.155,6.768Zm-8.283,7.5L6.692,12.7a.2.2,0,0,1,.217-.03l2.642,1.2A.2.2,0,0,1,9.662,14l.736,2.889a.241.241,0,0,1-.015.146L9.213,19.25a.2.2,0,0,1-.181.106l-2.319-.03a.21.21,0,0,1-.161-.081A9.01,9.01,0,0,1,4.8,14.436.221.221,0,0,1,4.872,14.269ZM18.5,19.245,17.34,17.037a.185.185,0,0,1-.015-.146L18.061,14a.2.2,0,0,1,.111-.136l2.642-1.2a.212.212,0,0,1,.217.03l1.82,1.573a.2.2,0,0,1,.071.166,8.984,8.984,0,0,1-1.749,4.81.2.2,0,0,1-.161.081l-2.324.03A.221.221,0,0,1,18.5,19.245Z" transform="translate(-3.375 -3.375)" fill="#ffa300"/>
</svg>
