<svg xmlns="http://www.w3.org/2000/svg" width="22" height="22" viewBox="0 0 22 22">
  <g id="sub_5" transform="translate(-1 -1)">
    <path id="Path_33" data-name="Path 33" d="M6.553,1.606A4.852,4.852,0,0,1,9,1a4.853,4.853,0,0,1,2.447.605l.016.008A2.884,2.884,0,0,0,13,2a3.67,3.67,0,0,0,2.214-.645A1.117,1.117,0,0,1,17,2.241V13h3a3,3,0,0,1,3,3v3a4.044,4.044,0,0,1-.637,2.289,3.632,3.632,0,0,1-1.416,1.23,4.684,4.684,0,0,1-1.314.42A3.83,3.83,0,0,1,19,23H5a4.044,4.044,0,0,1-2.289-.637,3.632,3.632,0,0,1-1.23-1.416,4.686,4.686,0,0,1-.42-1.314c-.029-.176-.044-.324-.052-.433C1,19.11,1,19.056,1,19V2.241a1.117,1.117,0,0,1,1.786-.886A3.67,3.67,0,0,0,5,2a2.884,2.884,0,0,0,1.537-.386ZM3,19,3,3.684A6.233,6.233,0,0,0,5,4a4.852,4.852,0,0,0,2.447-.606l.016-.008A2.884,2.884,0,0,1,9,3a2.884,2.884,0,0,1,1.537.386l.016.008A4.853,4.853,0,0,0,13,4a6.232,6.232,0,0,0,2-.316V19a4.18,4.18,0,0,0,.464,2H5a2.061,2.061,0,0,1-1.18-.3,1.635,1.635,0,0,1-.551-.646,2.689,2.689,0,0,1-.236-.748A2.211,2.211,0,0,1,3,19Zm16.3,1.967a2.688,2.688,0,0,0,.748-.236,1.635,1.635,0,0,0,.646-.551A2.061,2.061,0,0,0,21,19V16a1,1,0,0,0-1-1H17v4a2.061,2.061,0,0,0,.3,1.18,1.635,1.635,0,0,0,.646.551,2.688,2.688,0,0,0,.748.236c.106.018.191.026.247.03A1.552,1.552,0,0,0,19.3,20.967Z" fill="#ffa300" fill-rule="evenodd"/>
    <path id="Path_34" data-name="Path 34" d="M5,8A1,1,0,0,1,6,7h6a1,1,0,0,1,0,2H6A1,1,0,0,1,5,8Z" fill="#ffa300"/>
    <path id="Path_35" data-name="Path 35" d="M5,12a1,1,0,0,1,1-1h6a1,1,0,0,1,0,2H6A1,1,0,0,1,5,12Z" fill="#ffa300"/>
    <path id="Path_36" data-name="Path 36" d="M5,16a1,1,0,0,1,1-1h6a1,1,0,0,1,0,2H6A1,1,0,0,1,5,16Z" fill="#ffa300"/>
  </g>
</svg>
