<svg xmlns="http://www.w3.org/2000/svg" width="18.308" height="22.119" viewBox="0 0 18.308 22.119">
  <g id="sub_6" transform="translate(-4.75 -3.231)">
    <path id="Path_37" data-name="Path 37" d="M13.9,24.558A9.167,9.167,0,0,1,4.75,15.4a.947.947,0,0,1,1.894,0,7.26,7.26,0,1,0,7.26-7.26H10.747a.947.947,0,0,1,0-1.894H13.9a9.154,9.154,0,0,1,0,18.308Z" transform="translate(0 0.793)" fill="#ffa300"/>
    <path id="Path_38" data-name="Path 38" d="M12.985,12.725a.934.934,0,0,1-.669-.278L8.528,8.659a.947.947,0,0,1,0-1.338l3.788-3.788a.947.947,0,1,1,1.338,1.338L10.535,7.99l3.119,3.119a.947.947,0,0,1,0,1.338.934.934,0,0,1-.669.278Z" transform="translate(0.919 0)" fill="#ffa300"/>
  </g>
</svg>
