<svg xmlns="http://www.w3.org/2000/svg" width="45.531" height="45.531" viewBox="0 0 45.531 45.531">
  <path id="sub_2" d="M26.14,3.375A22.765,22.765,0,1,0,48.906,26.14,22.762,22.762,0,0,0,26.14,3.375Zm13.933,8.832a19.548,19.548,0,0,1,2.474,3.01.4.4,0,0,1,.044.383l-1.576,4.52a.435.435,0,0,1-.23.252L34.491,23.24a.44.44,0,0,1-.46-.066l-6.195-5.21a.449.449,0,0,1-.153-.339V10.719a.437.437,0,0,1,.2-.361l4.2-2.857a.431.431,0,0,1,.383-.055A19.947,19.947,0,0,1,40.073,12.207ZM31.985,44.779a.4.4,0,0,1-.285.263,19.673,19.673,0,0,1-5.56.788,20.015,20.015,0,0,1-5.56-.788.454.454,0,0,1-.285-.263L18.5,40.073a.459.459,0,0,1,.022-.361l2.441-4.63a.442.442,0,0,1,.383-.23h9.577a.43.43,0,0,1,.383.23l2.441,4.63a.459.459,0,0,1,.022.361ZM24.608,10.741v6.906a.449.449,0,0,1-.153.339l-6.206,5.2a.44.44,0,0,1-.46.066L11.5,20.383a.432.432,0,0,1-.23-.252L9.69,15.622a.429.429,0,0,1,.044-.383A19.843,19.843,0,0,1,19.825,7.49a.431.431,0,0,1,.383.055l4.2,2.857A.362.362,0,0,1,24.608,10.741ZM6.626,27.027l3.951-3.415a.437.437,0,0,1,.471-.066l5.735,2.6a.438.438,0,0,1,.241.3l1.6,6.271a.523.523,0,0,1-.033.317l-2.539,4.8a.426.426,0,0,1-.394.23L10.62,38a.457.457,0,0,1-.35-.175,19.56,19.56,0,0,1-3.8-10.441A.479.479,0,0,1,6.626,27.027Zm29.595,10.8-2.528-4.794a.4.4,0,0,1-.033-.317l1.6-6.271a.438.438,0,0,1,.241-.3l5.735-2.6a.46.46,0,0,1,.471.066l3.951,3.415a.443.443,0,0,1,.153.361,19.5,19.5,0,0,1-3.8,10.441.425.425,0,0,1-.35.175l-5.046.066A.48.48,0,0,1,36.22,37.829Z" transform="translate(-3.375 -3.375)" fill="#ffa300"/>
</svg>
